<svg width="720" height="1280" viewBox="0 0 720 1280" fill="none" xmlns="http://www.w3.org/2000/svg">
  <rect width="720" height="1280" rx="96" fill="#F8F2E8"/>
  <rect x="24" y="24" width="672" height="1232" rx="76" fill="#FFFDF8"/>
  <rect x="245" y="58" width="230" height="34" rx="17" fill="#E6DDCF"/>
  <rect x="72" y="136" width="576" height="178" rx="40" fill="url(#paint0_linear_1_5)"/>
  <circle cx="142" cy="206" r="28" fill="#FFF8EF" fill-opacity="0.85"/>
  <rect x="190" y="177" width="222" height="22" rx="11" fill="#FFF7ED" fill-opacity="0.92"/>
  <rect x="190" y="216" width="172" height="16" rx="8" fill="#FFF7ED" fill-opacity="0.7"/>
  <rect x="72" y="356" width="274" height="184" rx="36" fill="#F3EDE0"/>
  <rect x="374" y="356" width="274" height="184" rx="36" fill="#F8F4EC"/>
  <rect x="72" y="570" width="576" height="236" rx="40" fill="#FBF8F1"/>
  <rect x="72" y="842" width="576" height="160" rx="40" fill="#EFF1E9"/>
  <rect x="102" y="606" width="162" height="18" rx="9" fill="#2A2925"/>
  <rect x="102" y="640" width="228" height="12" rx="6" fill="#8A857C"/>
  <rect x="102" y="688" width="516" height="72" rx="28" fill="#FFFDF8"/>
  <rect x="104" y="874" width="168" height="18" rx="9" fill="#2A2925"/>
  <rect x="104" y="910" width="208" height="12" rx="6" fill="#7E8571"/>
  <path d="M124 960C156.5 924.8 195 907.2 239.5 907.2C284 907.2 322.5 924.8 355 960C387.5 995.2 426 1012.8 470.5 1012.8C515 1012.8 553.5 995.2 586 960" stroke="#7C8666" stroke-width="24" stroke-linecap="round"/>
  <circle cx="209" cy="451" r="62" fill="#C28B58" fill-opacity="0.17"/>
  <circle cx="511" cy="451" r="62" fill="#778164" fill-opacity="0.14"/>
  <path d="M209 451L191.8 468.2L179 455.4" stroke="#B9783E" stroke-width="18" stroke-linecap="round" stroke-linejoin="round"/>
  <path d="M483 470C493.667 457.333 503 451 511 451C519 451 528.333 457.333 539 470" stroke="#778164" stroke-width="16" stroke-linecap="round"/>
  <defs>
    <linearGradient id="paint0_linear_1_5" x1="106" y1="136" x2="625" y2="314" gradientUnits="userSpaceOnUse">
      <stop stop-color="#C28B58"/>
      <stop offset="1" stop-color="#88926C"/>
    </linearGradient>
  </defs>
</svg>
